<?xml version="1.0" encoding="UTF-8"?>
<svg version="1.1" xmlns="http://www.w3.org/2000/svg" width="128" height="128">
<path d="M0 0 C42.24 0 84.48 0 128 0 C128 42.24 128 84.48 128 128 C85.76 128 43.52 128 0 128 C0 85.76 0 43.52 0 0 Z " fill="#000000" transform="translate(0,0)"/>
<path d="M0 0 C7.31377493 -0.15217501 14.62714153 -0.25722622 21.94213867 -0.32958984 C24.43024959 -0.35975663 26.91825423 -0.40069627 29.40600586 -0.45263672 C32.98317685 -0.52545082 36.55894176 -0.55945883 40.13671875 -0.5859375 C41.24834885 -0.61690521 42.35997894 -0.64787292 43.5052948 -0.67977905 C51.07642058 -0.68307599 51.07642058 -0.68307599 53.77981567 1.31634521 C55.1262207 2.93115234 55.1262207 2.93115234 57 6 C58.13350137 7.03744193 59.29570334 8.0456517 60.5 9 C63.76428178 11.70147457 66.28518379 14.74222055 69 18 C70.14846224 19.02085532 71.31621922 20.02031935 72.5 21 C75.76428178 23.70147457 78.28518379 26.74222055 81 30 C82.74398646 31.58975636 84.53560555 33.10268583 86.3515625 34.609375 C88.35155071 36.29656885 90.18716489 38.11465148 92 40 C90.86397957 43.4080613 89.4084829 44.38050288 86.66796875 46.5546875 C84.94573443 48.04702169 83.56705828 49.61292331 82.125 51.375 C79.31770676 54.77330234 76.16690645 57.52883695 72.8125 60.375 C70.5819117 62.37483778 68.85345456 64.6522909 67 67 C65.53391002 68.21111781 64.06696087 69.4214313 62.58203125 70.609375 C60.26365322 72.64725791 58.35010964 74.97038991 56.39453125 77.3515625 C55.93433594 77.89554687 55.47414062 78.43953125 55 79 C54.37541145 79.78296196 54.37541145 79.78296196 53.73820496 80.58174133 C51.35811006 82.52373914 49.84256767 82.36229858 46.79418945 82.34057617 C45.73331619 82.34034958 44.67244293 82.34012299 43.579422 82.33988953 C41.86368233 82.31666374 41.86368233 82.31666374 40.11328125 82.29296875 C38.94113571 82.28872391 37.76899017 82.28447906 36.56132507 82.28010559 C32.81148466 82.26329072 29.06217843 82.22563232 25.3125 82.1875 C22.77279421 82.17245684 20.23308001 82.1587678 17.69335938 82.14648438 C11.46205681 82.11337796 5.23106656 82.06315028 -1 82 C3.37029366 76.77051256 7.96911804 71.89710045 12.8046875 67.09765625 C13.8906572 66.01380898 13.8906572 66.01380898 14.99856567 64.9080658 C17.28835265 62.62383078 19.58160993 60.34311688 21.875 58.0625 C23.43773161 56.50478961 25.0002339 54.94684913 26.5625 53.38867188 C30.3723531 49.58978398 34.18505379 45.79377287 38 42 C35.07525337 35.9597624 30.99076014 32.05854463 25.9453125 27.7578125 C23.34102108 25.40453712 21.23910361 22.69840692 19 20 C17.26822415 18.42492777 15.48697741 16.92666656 13.6875 15.4296875 C11.31580592 13.42033557 9.16996443 11.22421354 7 9 C6.07767578 8.11054688 6.07767578 8.11054688 5.13671875 7.203125 C4.49347656 6.57921875 3.85023437 5.9553125 3.1875 5.3125 C2.58292969 4.73113281 1.97835938 4.14976563 1.35546875 3.55078125 C0 2 0 2 0 0 Z " fill="#EFEFEF" transform="translate(22,23)"/>
<path d="M0 0 C9.37438641 -2.2097375 19.84952171 -3.81123909 29 0 C41.55714827 7.91624792 51.5200882 20.75901264 61 32 C55.15286768 44.53515978 38.71006748 62.6725383 25.83581543 67.87445068 C17.04470508 70.23997747 7.75732733 68.98515182 -1 67 C4.47869733 60.31221085 10.60558732 54.31468907 16.75 48.25 C18.83102659 46.19561258 20.90867701 44.13789453 22.984375 42.078125 C23.89928711 41.17481445 24.81419922 40.27150391 25.75683594 39.34082031 C28.11603916 37.01572642 28.11603916 37.01572642 30 34 C30.66 34 31.32 34 32 34 C25.81869993 26.5625319 18.93297659 19.85145094 12.0625 13.0625 C9.77971465 10.80622564 7.5002206 8.54669926 5.22265625 6.28515625 C4.4353286 5.51027611 4.4353286 5.51027611 3.63209534 4.71974182 C2.40246007 3.49860529 1.19830753 2.25189311 0 1 C0 0.67 0 0.34 0 0 Z " fill="#020202" transform="translate(41,31)"/>
<path d="M0 0 C17.16 0 34.32 0 52 0 C52 0.33 52 0.66 52 1 C45.07658756 1.14284429 38.15316544 1.28521217 31.22973633 1.42724609 C28.87361427 1.47563843 26.51749446 1.52414053 24.16137695 1.57275391 C20.77816339 1.64254025 17.39494198 1.71193409 14.01171875 1.78125 C12.42722176 1.81406067 12.42722176 1.81406067 10.81071472 1.84753418 C9.82992447 1.86755493 8.84913422 1.88757568 7.83862305 1.90820312 C6.97480515 1.92596802 6.11098724 1.94373291 5.22099304 1.96203613 C3.48087021 1.99178039 1.74037702 2 0 2 C0 1.34 0 0.68 0 0 Z " fill="#D9D9D9" transform="translate(22,23)"/>
</svg>
